<svg width="20" height="20" viewBox="0 0 20 20" fill="none" xmlns="http://www.w3.org/2000/svg">
<path id="&#236;&#184;&#161;&#236;&#160;&#149; &#236;&#132;&#164;&#236;&#160;&#149;_icon" fill-rule="evenodd" clip-rule="evenodd" d="M9.083 0.0999756C8.67417 0.0999756 8.31671 0.375523 8.21264 0.770878L7.75656 2.50356L6.30753 3.1144L5.19832 2.12757C4.84218 1.81072 4.30077 1.82652 3.9637 2.16358L2.1637 3.96358C1.83763 4.28965 1.81077 4.80943 2.10149 5.16738L3.0736 6.36429L2.47748 7.83086L0.795486 8.22354C0.388206 8.31863 0.100098 8.68174 0.100098 9.09997V10.9C0.100098 11.3058 0.371706 11.6614 0.763231 11.7682L2.50174 12.2425L3.11424 13.6955L2.12839 14.801C1.81086 15.157 1.82635 15.699 2.1637 16.0364L3.9637 17.8364C4.29021 18.1629 4.81085 18.1893 5.16876 17.8976L6.36526 16.9222L7.79577 17.5106L8.22749 19.2203C8.3284 19.62 8.68791 19.9 9.1001 19.9H10.9001C11.3121 19.9 11.6715 19.6202 11.7726 19.2208L12.2054 17.5103L13.6838 16.898C13.8326 17.0228 14.0032 17.1693 14.173 17.3171C14.3417 17.464 14.4985 17.6025 14.6133 17.7043C14.6706 17.7552 14.7173 17.7968 14.7495 17.8256L14.7866 17.8587L14.7961 17.8672L14.7984 17.8693L14.799 17.8698L14.7991 17.8699C15.155 18.1892 15.6984 18.1745 16.0365 17.8364L17.8365 16.0364C18.1677 15.7051 18.1895 15.1752 17.8865 14.8179L16.9061 13.6618L17.5128 12.1965L19.2264 11.7512C19.6231 11.6482 19.9001 11.2901 19.9001 10.8802V9.09997C19.9001 8.68839 19.6209 8.32924 19.222 8.22776L17.5189 7.79448L16.9139 6.33278L17.8874 5.18097C18.1895 4.82363 18.1673 4.29444 17.8365 3.96358L16.0365 2.16358C15.7043 1.83138 15.1725 1.81058 14.8153 2.11584L13.672 3.09308L12.1588 2.47093L11.712 0.771167C11.6081 0.375669 11.2505 0.0999756 10.8416 0.0999756H9.083ZM9.38455 3.38997L9.77675 1.89998H10.1476L10.5319 3.36178C10.6036 3.63464 10.7991 3.85808 11.0601 3.96536L13.4964 4.96706C13.8087 5.09549 14.1667 5.03824 14.4234 4.81881L15.3522 4.02488L15.9784 4.6511L15.1853 5.58948C14.9679 5.84663 14.9122 6.20361 15.041 6.51471L16.0283 8.89971C16.1369 9.16201 16.3629 9.3577 16.638 9.42769L18.1001 9.79967V10.1842L16.6264 10.5671C16.3532 10.6381 16.1291 10.8331 16.0212 11.0939L15.033 13.4807C14.9039 13.7923 14.96 14.1498 15.1781 14.4071L15.9775 15.3498L15.3618 15.9655L15.355 15.9596C15.0227 15.6702 14.5945 15.304 14.353 15.1313C14.1003 14.9507 13.7722 14.9131 13.4852 15.032L11.0993 16.0202C10.8367 16.1289 10.6409 16.3554 10.5712 16.6309L10.1995 18.1H9.80109L9.43001 16.6304C9.36019 16.354 9.16349 16.1269 8.89978 16.0184L6.55438 15.0536C6.24898 14.928 5.8993 14.9797 5.64334 15.1884L4.6616 15.9887L4.03752 15.3646L4.83621 14.469C5.06742 14.2097 5.12877 13.8405 4.99382 13.5204L3.99032 11.1399C3.88296 10.8852 3.66452 10.6939 3.39786 10.6212L1.9001 10.2126V9.81406L3.34041 9.47781C3.62495 9.41138 3.85953 9.21096 3.96955 8.94027L4.94155 6.54897C5.06518 6.24484 5.01338 5.89751 4.80641 5.64267L4.01034 4.66252L4.63617 4.0367L5.53548 4.83678C5.79474 5.06745 6.16353 5.1285 6.4833 4.9937L8.8638 3.9902C9.12109 3.88174 9.31347 3.66 9.38455 3.38997ZM9.9999 6.30002C9.0186 6.30002 8.07749 6.68984 7.38361 7.38373C6.68972 8.07761 6.2999 9.01872 6.2999 10C6.2999 10.9813 6.68972 11.9224 7.38361 12.6163C8.07749 13.3102 9.0186 13.7 9.9999 13.7C10.9812 13.7 11.9223 13.3102 12.6162 12.6163C13.3101 11.9224 13.6999 10.9813 13.6999 10C13.6999 9.01872 13.3101 8.07761 12.6162 7.38373C11.9223 6.68984 10.9812 6.30002 9.9999 6.30002ZM8.79782 8.79794C9.11663 8.47913 9.54903 8.30002 9.9999 8.30002C10.4508 8.30002 10.8832 8.47913 11.202 8.79794C11.5208 9.11675 11.6999 9.54916 11.6999 10C11.6999 10.4509 11.5208 10.8833 11.202 11.2021C10.8832 11.5209 10.4508 11.7 9.9999 11.7C9.54903 11.7 9.11663 11.5209 8.79782 11.2021C8.47901 10.8833 8.2999 10.4509 8.2999 10C8.2999 9.54916 8.47901 9.11675 8.79782 8.79794Z" fill="#001"/>
</svg>
