<svg width="16" height="20" viewBox="0 0 16 20" fill="none" xmlns="http://www.w3.org/2000/svg">
<path id="&#236;&#152;&#164;&#235;&#138;&#152;&#236;&#157;&#152; &#236;&#132;&#164;&#235;&#172;&#184;_icon" fill-rule="evenodd" clip-rule="evenodd" d="M1 0C0.447715 0 0 0.447715 0 1V19C0 19.5523 0.447715 20 1 20H15C15.5523 20 16 19.5523 16 19V6.70732V5.39024C16 5.12563 15.8951 4.8718 15.7083 4.68437L11.3333 0.294124C11.1457 0.105835 10.8908 0 10.625 0H9.75H1ZM2 18V2H8.75V6.70732C8.75 7.2596 9.19771 7.70732 9.75 7.70732H14V18H2ZM13.9042 5.70732L10.75 2.54212V5.70732H13.9042ZM4.9375 14.0488C4.38522 14.0488 3.9375 14.4965 3.9375 15.0488C3.9375 15.6011 4.38522 16.0488 4.9375 16.0488H11.0625C11.6148 16.0488 12.0625 15.6011 12.0625 15.0488C12.0625 14.4965 11.6148 14.0488 11.0625 14.0488H4.9375ZM4.9375 10.0975C4.38522 10.0975 3.9375 10.5452 3.9375 11.0975C3.9375 11.6498 4.38522 12.0975 4.9375 12.0975H11.0625C11.6148 12.0975 12.0625 11.6498 12.0625 11.0975C12.0625 10.5452 11.6148 10.0975 11.0625 10.0975H4.9375Z" fill="#001"/>
</svg>
