<svg width="18" height="20" viewBox="0 0 18 20" fill="none" xmlns="http://www.w3.org/2000/svg">
<path id="&#236;&#157;&#184;&#236;&#167;&#128; &#237;&#155;&#136;&#235;&#160;&#168;_icon" fill-rule="evenodd" clip-rule="evenodd" d="M16.2017 8.18182C16.2017 4.67273 13.3964 1.81818 9.90767 1.81818C8.29023 1.81692 6.73433 2.445 5.56252 3.57223C4.46417 4.62878 3.78222 6.04791 3.6358 7.56672C3.61661 7.76575 3.54948 7.9582 3.42945 8.11812L1.88728 10.1727C1.67148 10.4545 1.88728 10.9091 2.26492 10.9091H2.61364C3.16592 10.9091 3.61364 11.3568 3.61364 11.9091V13.6364C3.61364 14.6455 4.41388 15.4545 5.41193 15.4545C5.90852 15.4545 6.31108 15.8571 6.31108 16.3537V17.1818C6.31108 17.7341 6.7588 18.1818 7.31108 18.1818H11.6051C12.1574 18.1818 12.6051 17.7341 12.6051 17.1818V14.5487C12.6051 14.1634 12.8302 13.8183 13.1595 13.6184C14.9862 12.509 16.2017 10.5 16.2017 8.18182ZM1.90503 6.92171C2.51038 2.97745 5.8689 0 9.90767 0C14.3674 0 18 3.66364 18 8.18182C18 10.7812 16.8224 13.1504 14.8339 14.6886C14.5711 14.8919 14.4034 15.1991 14.4034 15.5313V19C14.4034 19.5523 13.9557 20 13.4034 20H5.51279C4.9605 20 4.51279 19.5523 4.51279 19V17.9244C4.51279 17.4706 4.1991 17.0863 3.79551 16.8788C2.62355 16.2763 1.81534 15.0457 1.81534 13.6364V13.4886C1.81534 13.0137 1.46399 12.623 1.06353 12.3677C0.726053 12.1526 0.443733 11.8466 0.250827 11.4727C-0.135806 10.7182 -0.072866 9.80909 0.421665 9.11818L0.431994 9.10252C0.436773 9.09527 0.444872 9.09091 0.453552 9.09091C0.461769 9.09091 0.469496 9.087 0.474361 9.08038L1.71405 7.3931C1.81583 7.25459 1.87896 7.0916 1.90503 6.92171ZM13.8007 7.54546L12.0384 8.00909L13.3332 9.33637C13.6479 9.64546 13.6479 10.1727 13.3332 10.4909C13.0185 10.8091 12.497 10.8091 12.1913 10.4909L10.8875 9.18182L10.4199 10.9636C10.312 11.4091 9.87146 11.6545 9.45786 11.5455C9.35316 11.5189 9.2547 11.4717 9.16812 11.4066C9.08155 11.3414 9.00858 11.2596 8.95342 11.1658C8.89826 11.072 8.862 10.9681 8.84672 10.8601C8.83145 10.752 8.83746 10.642 8.86442 10.5364L9.34097 8.75455L7.57864 9.23637C7.47413 9.26362 7.36532 9.2697 7.25848 9.25426C7.15164 9.23882 7.04887 9.20215 6.9561 9.14638C6.86333 9.09061 6.78239 9.01684 6.71795 8.92931C6.6535 8.84178 6.60682 8.74222 6.58059 8.63637C6.47269 8.22728 6.72445 7.77273 7.15604 7.66364L8.91837 7.19091L7.6236 5.87273C7.48832 5.71653 7.41685 5.51417 7.42365 5.30666C7.43045 5.09916 7.51502 4.90203 7.66022 4.75522C7.80542 4.60841 8.0004 4.5229 8.20564 4.51603C8.41087 4.50915 8.61102 4.58142 8.76551 4.71818L10.0783 6.02728L10.5368 4.24546C10.6447 3.8 11.0943 3.54546 11.5169 3.66364C11.9575 3.78182 12.2092 4.22728 12.0924 4.66364L11.6158 6.45455L13.3871 5.97273C13.8187 5.85455 14.2593 6.10909 14.3762 6.55455C14.4931 6.98182 14.2413 7.43637 13.8007 7.54546Z" fill="#001"/>
</svg>
