<svg width="22" height="21" viewBox="0 0 22 21" fill="none" xmlns="http://www.w3.org/2000/svg">
<path id="&#237;&#153;&#136;_icon" fill-rule="evenodd" clip-rule="evenodd" d="M11.8045 2.98868C11.4241 2.63327 10.8347 2.62914 10.4494 2.97917L4.53516 8.35173V19H7.88721V15.6322C7.88721 13.8353 9.34387 12.3787 11.1407 12.3787C12.9376 12.3787 14.3943 13.8353 14.3943 15.6322V19H17.7464V8.54066L11.8045 2.98868ZM12.3943 19V15.6322C12.3943 14.9399 11.833 14.3787 11.1407 14.3787C10.4484 14.3787 9.88721 14.9399 9.88721 15.6322V19H12.3943ZM1.67241 10.9523L2.53516 10.1686V19C2.53516 20.1046 3.43059 21 4.53516 21H17.7464C18.851 21 19.7464 20.1046 19.7464 19V10.4094L20.3173 10.9428C20.7208 11.3198 21.3536 11.2984 21.7307 10.8948C22.1077 10.4913 22.0863 9.85849 21.6827 9.48143L13.1699 1.52733C12.0288 0.461098 10.2605 0.448686 9.10457 1.49879L0.327608 9.47192C-0.0811869 9.84328 -0.111537 10.4757 0.259818 10.8845C0.631174 11.2933 1.26361 11.3237 1.67241 10.9523Z" fill="#001"/>
</svg>
