<svg xmlns="http://www.w3.org/2000/svg" width="26" height="30" viewBox="0 0 26 30" fill="none">
  <path fill-rule="evenodd" clip-rule="evenodd" d="M20.6557 24.3257C18.6351 26.626 15.8959 28 13 28C10.1041 28 7.36492 26.626 5.34433 24.3257H20.6557ZM22.0911 22.3257H22.0835H3.91604H3.90887C2.71382 20.2711 2 17.7675 2 15C2 7.54203 7.18397 2 13 2C18.816 2 24 7.54203 24 15C24 17.7675 23.2862 20.2711 22.0911 22.3257ZM18.0602 28.8212C22.7261 26.5441 26 21.2132 26 15C26 6.71573 20.1797 0 13 0C5.8203 0 0 6.71573 0 15C0 17.6605 0.600293 20.1592 1.65312 22.3257H1.65283C1.99478 23.0293 2.38448 23.698 2.81685 24.3257C5.19838 27.7832 8.8747 30.0001 12.9998 30.0001C14.3384 30.0001 15.6298 29.7666 16.845 29.3331C17.2593 29.1853 17.6648 29.0142 18.0602 28.8212ZM17.0512 12.9069C16.9393 12.6352 16.7883 12.3217 16.59 11.9665C16.0732 11.0408 15.3583 10.0475 14.6041 9.11029C14.0461 8.4169 13.4853 7.77711 13.0001 7.24646C12.515 7.77711 11.9541 8.4169 11.3961 9.11029C10.6419 10.0475 9.92703 11.0408 9.4102 11.9665C9.21188 12.3217 9.06094 12.6352 8.94905 12.9069H17.0512ZM8.78382 14.9069C8.80828 15.013 8.83674 15.1177 8.86903 15.2208C9.41357 16.9588 11.0486 18.2324 13.0001 18.2324C15.0673 18.2324 16.7795 16.8032 17.2164 14.9069H8.78382ZM6.83443 12.9069C6.82949 12.9246 6.82466 12.9423 6.81994 12.96C6.7269 13.3084 6.67578 13.6416 6.67578 13.9534C6.67578 17.4212 9.50728 20.2324 13.0001 20.2324C16.4929 20.2324 19.3244 17.4212 19.3244 13.9534C19.3244 13.6258 19.268 13.2745 19.1658 12.9069C18.5135 10.561 15.9973 7.55092 14.3878 5.80059C14.3358 5.74399 14.2847 5.68871 14.2347 5.63482C14.2179 5.61682 14.2013 5.59897 14.1849 5.58128C14.1565 5.55087 14.1286 5.52092 14.1009 5.49145C13.446 4.79219 13.0001 4.36035 13.0001 4.36035C13.0001 4.36035 12.5159 4.82936 11.8153 5.58128C11.7989 5.59898 11.7823 5.61682 11.7655 5.63483C11.7155 5.68872 11.6644 5.74399 11.6124 5.80059C10.0029 7.55092 7.48667 10.561 6.83443 12.9069Z" fill="#E8E8E8"/>
</svg>