<svg xmlns="http://www.w3.org/2000/svg" width="20" height="20" viewBox="0 0 20 20" fill="none">
  <path fill-rule="evenodd" clip-rule="evenodd" d="M3.57143 2C3.15466 2 2.75496 2.16556 2.46026 2.46026C2.16556 2.75496 2 3.15466 2 3.57143V16.4286C2 16.8453 2.16556 17.245 2.46026 17.5397C2.75496 17.8344 3.15466 18 3.57143 18H16.4286C16.8453 18 17.245 17.8344 17.5397 17.5397C17.8344 17.245 18 16.8453 18 16.4286V3.57143C18 3.15466 17.8344 2.75496 17.5397 2.46026C17.245 2.16556 16.8453 2 16.4286 2H3.57143ZM1.04605 1.04605C1.71582 0.376274 2.62423 0 3.57143 0H16.4286C17.3758 0 18.2842 0.376274 18.954 1.04605C19.6237 1.71582 20 2.62423 20 3.57143V16.4286C20 17.3758 19.6237 18.2842 18.954 18.954C18.2842 19.6237 17.3758 20 16.4286 20H3.57143C2.62423 20 1.71582 19.6237 1.04605 18.954C0.376274 18.2842 0 17.3758 0 16.4286V3.57143C0 2.62423 0.376274 1.71582 1.04605 1.04605ZM6.14286 3.85714C6.69514 3.85714 7.14286 4.30486 7.14286 4.85714V15.0593C7.14286 15.6116 6.69514 16.0593 6.14286 16.0593C5.59057 16.0593 5.14286 15.6116 5.14286 15.0593V4.85714C5.14286 4.30486 5.59057 3.85714 6.14286 3.85714ZM13.8571 6.42857C14.4094 6.42857 14.8571 6.87629 14.8571 7.42857V15.1429C14.8571 15.6951 14.4094 16.1429 13.8571 16.1429C13.3049 16.1429 12.8571 15.6951 12.8571 15.1429V7.42857C12.8571 6.87629 13.3049 6.42857 13.8571 6.42857ZM10 9C10.5523 9 11 9.44771 11 10V15.1236C11 15.6759 10.5523 16.1236 10 16.1236C9.44771 16.1236 9 15.6759 9 15.1236V10C9 9.44771 9.44771 9 10 9Z" fill="#B4B4BA"/>
</svg>