<svg xmlns="http://www.w3.org/2000/svg" width="36" height="36" viewBox="0 0 36 36" fill="none">
  <path d="M18 6.54546C17.5364 6.54546 17.1475 6.38837 16.8333 6.07419C16.5191 5.76 16.3625 5.37164 16.3636 4.90909V1.63637C16.3636 1.17273 16.5207 0.783823 16.8349 0.469642C17.1491 0.15546 17.5375 -0.00108525 18 5.66216e-06C18.4636 5.66216e-06 18.8525 0.157096 19.1667 0.471278C19.4809 0.78546 19.6375 1.17382 19.6364 1.63637V4.90909C19.6364 5.37273 19.4793 5.76164 19.1651 6.07582C18.8509 6.39 18.4625 6.54655 18 6.54546ZM26.1 9.9C25.8 9.6 25.65 9.22528 25.65 8.77582C25.65 8.32637 25.8 7.93746 26.1 7.60909L28.3909 5.27728C28.7182 4.95 29.1065 4.78637 29.556 4.78637C30.0054 4.78637 30.3944 4.95 30.7227 5.27728C31.0227 5.57728 31.1727 5.9591 31.1727 6.42273C31.1727 6.88637 31.0227 7.26818 30.7227 7.56818L28.3909 9.9C28.0909 10.2 27.7091 10.35 27.2455 10.35C26.7818 10.35 26.4 10.2 26.1 9.9ZM31.0909 19.6364C30.6273 19.6364 30.2384 19.4793 29.9242 19.1651C29.61 18.8509 29.4534 18.4625 29.4545 18C29.4545 17.5364 29.6116 17.1475 29.9258 16.8333C30.24 16.5191 30.6284 16.3625 31.0909 16.3636H34.3636C34.8273 16.3636 35.2162 16.5207 35.5304 16.8349C35.8445 17.1491 36.0011 17.5375 36 18C36 18.4636 35.8429 18.8525 35.5287 19.1667C35.2145 19.4809 34.8262 19.6375 34.3636 19.6364H31.0909ZM18 36C17.5364 36 17.1475 35.8429 16.8333 35.5287C16.5191 35.2145 16.3625 34.8262 16.3636 34.3636V31.0909C16.3636 30.6273 16.5207 30.2384 16.8349 29.9242C17.1491 29.61 17.5375 29.4534 18 29.4545C18.4636 29.4545 18.8525 29.6116 19.1667 29.9258C19.4809 30.24 19.6375 30.6284 19.6364 31.0909V34.3636C19.6364 34.8273 19.4793 35.2162 19.1651 35.5304C18.8509 35.8445 18.4625 36.0011 18 36ZM7.60909 9.9L5.27728 7.60909C4.95 7.28182 4.78637 6.88637 4.78637 6.42273C4.78637 5.9591 4.95 5.57728 5.27728 5.27728C5.57728 4.97728 5.9591 4.82728 6.42273 4.82728C6.88637 4.82728 7.26818 4.97728 7.56818 5.27728L9.9 7.60909C10.2 7.90909 10.35 8.29091 10.35 8.75455C10.35 9.21818 10.2 9.6 9.9 9.9C9.57273 10.2 9.19091 10.35 8.75455 10.35C8.31818 10.35 7.93637 10.2 7.60909 9.9ZM28.3909 30.7227L26.1 28.3909C25.8 28.0636 25.65 27.6747 25.65 27.2242C25.65 26.7736 25.8 26.3989 26.1 26.1C26.4 25.8 26.7753 25.65 27.2258 25.65C27.6764 25.65 28.0647 25.8 28.3909 26.1L30.7227 28.3909C31.05 28.6909 31.2071 29.0727 31.194 29.5364C31.1809 30 31.0238 30.3954 30.7227 30.7227C30.3954 31.05 30 31.2136 29.5364 31.2136C29.0727 31.2136 28.6909 31.05 28.3909 30.7227ZM1.63637 19.6364C1.17273 19.6364 0.783823 19.4793 0.469642 19.1651C0.15546 18.8509 -0.00108525 18.4625 5.66216e-06 18C5.66216e-06 17.5364 0.157096 17.1475 0.471278 16.8333C0.78546 16.5191 1.17382 16.3625 1.63637 16.3636H4.90909C5.37273 16.3636 5.76164 16.5207 6.07582 16.8349C6.39 17.1491 6.54655 17.5375 6.54546 18C6.54546 18.4636 6.38837 18.8525 6.07419 19.1667C5.76 19.4809 5.37164 19.6375 4.90909 19.6364H1.63637ZM5.27728 30.7227C4.97728 30.4227 4.82728 30.0409 4.82728 29.5773C4.82728 29.1136 4.97728 28.7318 5.27728 28.4318L7.60909 26.1C7.90909 25.8 8.28382 25.65 8.73327 25.65C9.18273 25.65 9.57164 25.8 9.9 26.1C10.2273 26.4273 10.3909 26.8162 10.3909 27.2667C10.3909 27.7173 10.2273 28.1056 9.9 28.4318L7.60909 30.7227C7.28182 31.05 6.88637 31.2136 6.42273 31.2136C5.9591 31.2136 5.57728 31.05 5.27728 30.7227ZM18 27.8182C15.2727 27.8182 12.9545 26.8636 11.0455 24.9545C9.13637 23.0455 8.18182 20.7273 8.18182 18C8.18182 15.2727 9.13637 12.9545 11.0455 11.0455C12.9545 9.13637 15.2727 8.18182 18 8.18182C20.7273 8.18182 23.0455 9.13637 24.9545 11.0455C26.8636 12.9545 27.8182 15.2727 27.8182 18C27.8182 20.7273 26.8636 23.0455 24.9545 24.9545C23.0455 26.8636 20.7273 27.8182 18 27.8182ZM18 24.5455C19.8 24.5455 21.3409 23.9045 22.6227 22.6227C23.9045 21.3409 24.5455 19.8 24.5455 18C24.5455 16.2 23.9045 14.6591 22.6227 13.3773C21.3409 12.0955 19.8 11.4545 18 11.4545C16.2 11.4545 14.6591 12.0955 13.3773 13.3773C12.0955 14.6591 11.4545 16.2 11.4545 18C11.4545 19.8 12.0955 21.3409 13.3773 22.6227C14.6591 23.9045 16.2 24.5455 18 24.5455Z" fill="#F3A125"/>
</svg>