<svg xmlns="http://www.w3.org/2000/svg" width="44" height="44" viewBox="0 0 44 44" fill="none">
  <path fill-rule="evenodd" clip-rule="evenodd" d="M22 4.4C12.2798 4.4 4.4 12.2798 4.4 22C4.4 31.7202 12.2798 39.6 22 39.6C31.7202 39.6 39.6 31.7202 39.6 22C39.6 12.2798 31.7202 4.4 22 4.4ZM0 22C0 9.84974 9.84974 0 22 0C34.1503 0 44 9.84974 44 22C44 34.1503 34.1503 44 22 44C9.84974 44 0 34.1503 0 22ZM18.7 30.8C18.7 28.9775 20.1775 27.5 22 27.5H22.022C23.8445 27.5 25.322 28.9775 25.322 30.8V30.822C25.322 32.6445 23.8445 34.122 22.022 34.122H22C20.1775 34.122 18.7 32.6445 18.7 30.822V30.8ZM21.9998 10.8274C20.6816 10.8274 19.6129 11.8961 19.6129 13.2143V21.9975C19.6129 23.3158 20.6816 24.3844 21.9998 24.3844C23.3181 24.3844 24.3868 23.3158 24.3868 21.9975V13.2143C24.3868 11.8961 23.3181 10.8274 21.9998 10.8274Z" fill="white"/>
</svg>