<svg xmlns="http://www.w3.org/2000/svg" width="44" height="44" viewBox="0 0 44 44" fill="none">
  <path d="M5.66667 29V38.3333H15V43H1V29H5.66667ZM43 29V43H29V38.3333H38.3333V29H43ZM15 1V5.66667H5.66667V15H1V1H15ZM43 1V15H38.3333V5.66667H29V1H43Z" fill="white"/>
  <path d="M21.9999 16.7255C19.8412 14.4882 15.8829 13.804 13.7228 16.0413C11.5654 18.2786 11.8849 21.2905 13.7228 23.9123C15.562 26.5342 18.4477 28.8905 21.9999 31.7779C25.5522 28.8905 28.4379 26.5342 30.2771 23.9123C32.115 21.2905 32.4345 18.2786 30.2771 16.0413C28.117 13.804 24.1587 14.4882 21.9999 16.7255Z" stroke="white" stroke-width="4"/>
</svg>