<svg xmlns="http://www.w3.org/2000/svg" width="42" height="42" viewBox="0 0 42 42" fill="none">
  <path d="M40.32 0H1.68C0.75075 0 0 0.75075 0 1.68V40.32C0 41.2492 0.75075 42 1.68 42H40.32C41.2492 42 42 41.2492 42 40.32V1.68C42 0.75075 41.2492 0 40.32 0ZM38.22 38.22H3.78V3.78H38.22V38.22ZM11.97 29.9775V34.02C11.97 34.251 12.159 34.44 12.39 34.44H14.91C15.141 34.44 15.33 34.251 15.33 34.02V29.9775C14.7997 30.1507 14.238 30.24 13.65 30.24C13.062 30.24 12.5002 30.1455 11.97 29.9775ZM15.33 19.5825V7.98C15.33 7.749 15.141 7.56 14.91 7.56H12.39C12.159 7.56 11.97 7.749 11.97 7.98V19.5825C12.5002 19.4093 13.062 19.32 13.65 19.32C14.238 19.32 14.7997 19.4145 15.33 19.5825ZM11.97 29.9775C12.5002 30.1507 13.062 30.24 13.65 30.24C14.238 30.24 14.7997 30.1455 15.33 29.9775C17.5245 29.2687 19.11 27.2107 19.11 24.78C19.11 22.3492 17.5245 20.2913 15.33 19.5825C14.7997 19.4093 14.238 19.32 13.65 19.32C13.062 19.32 12.5002 19.4145 11.97 19.5825C9.7755 20.2913 8.19 22.3492 8.19 24.78C8.19 27.2107 9.7755 29.2687 11.97 29.9775ZM11.9753 23.9032C11.991 23.8717 12.012 23.8403 12.0278 23.8088V23.8035L12.0907 23.709C12.096 23.6985 12.1012 23.6932 12.1065 23.6827C12.1222 23.6565 12.1432 23.6355 12.159 23.6092C12.1643 23.604 12.1695 23.5935 12.1747 23.5882C12.201 23.5567 12.222 23.5305 12.2482 23.5042L12.264 23.4885L12.327 23.4255L12.348 23.4045C12.3743 23.3782 12.4005 23.3573 12.432 23.331C12.4635 23.3048 12.4897 23.2837 12.5212 23.2627C12.5317 23.2575 12.537 23.2522 12.5475 23.247C12.5737 23.2312 12.5947 23.2102 12.621 23.1945C12.6262 23.1892 12.6367 23.184 12.642 23.1787C12.6735 23.1577 12.705 23.142 12.7418 23.121C12.747 23.1158 12.7575 23.1157 12.7627 23.1105C12.789 23.0947 12.8153 23.0843 12.8468 23.0685L12.8782 23.0527C12.915 23.037 12.9465 23.0212 12.9832 23.0107C13.02 22.995 13.0567 22.9845 13.0935 22.974C13.104 22.9687 13.1145 22.9688 13.125 22.9635C13.1565 22.953 13.1828 22.9478 13.2143 22.9425C13.2248 22.9425 13.23 22.9373 13.2405 22.9373C13.2773 22.9268 13.3192 22.9215 13.356 22.9163C13.3665 22.9163 13.3717 22.9163 13.3822 22.911C13.4137 22.9058 13.4453 22.9058 13.4768 22.9005H13.5082C13.5502 22.9005 13.587 22.8952 13.629 22.8952C13.671 22.8952 13.7077 22.8953 13.7497 22.9005H13.7812C13.8127 22.9005 13.8442 22.9058 13.8757 22.911C13.8862 22.911 13.8915 22.911 13.902 22.9163C13.9387 22.9215 13.9807 22.9268 14.0175 22.9373C14.028 22.9373 14.0332 22.9425 14.0437 22.9425C14.0752 22.9478 14.1068 22.9583 14.133 22.9635C14.1435 22.9688 14.154 22.9687 14.1645 22.974C14.2012 22.9845 14.238 22.995 14.2747 23.0107C14.3115 23.0212 14.343 23.037 14.3797 23.0527L14.4112 23.0685C14.4375 23.079 14.469 23.0947 14.4952 23.1105C14.5005 23.1157 14.511 23.1158 14.5162 23.121C14.5477 23.1368 14.5845 23.1577 14.616 23.1787C14.6212 23.184 14.6317 23.1892 14.637 23.1945C14.6632 23.2102 14.6895 23.226 14.7105 23.247C14.721 23.2522 14.7263 23.2575 14.7368 23.2627C14.7683 23.2837 14.7997 23.31 14.826 23.331C14.8522 23.352 14.8837 23.3782 14.91 23.4045L14.931 23.4255L14.994 23.4885L15.0097 23.5042C15.036 23.5305 15.0622 23.562 15.0832 23.5882C15.0885 23.5935 15.0938 23.604 15.099 23.6092C15.12 23.6302 15.1357 23.6565 15.1515 23.6827C15.1567 23.6932 15.162 23.6985 15.1672 23.709L15.2302 23.8035C15.2302 23.8035 15.2303 23.8088 15.2355 23.8088C15.4105 24.1025 15.5031 24.4381 15.5032 24.78C15.5032 25.095 15.4245 25.3942 15.288 25.6567C15.2723 25.6882 15.2513 25.7197 15.2355 25.7512C15.2355 25.7512 15.2355 25.7565 15.2302 25.7565L15.1672 25.851C15.162 25.8615 15.1567 25.8668 15.1515 25.8773C15.1357 25.9035 15.1147 25.9245 15.099 25.9507C15.0938 25.956 15.0885 25.9665 15.0832 25.9718C15.057 26.0033 15.036 26.0295 15.0097 26.0557L14.994 26.0715L14.931 26.1345L14.91 26.1555C14.8837 26.1817 14.8575 26.2027 14.826 26.229C14.7945 26.2552 14.7683 26.2763 14.7368 26.2973C14.7263 26.3025 14.721 26.3078 14.7105 26.313C14.6842 26.3288 14.6632 26.3498 14.637 26.3655C14.6317 26.3708 14.6212 26.376 14.616 26.3812C14.5845 26.4022 14.553 26.418 14.5162 26.439C14.511 26.4442 14.5005 26.4442 14.4952 26.4495C14.469 26.4652 14.4427 26.4757 14.4112 26.4915L14.3797 26.5072C14.343 26.523 14.3115 26.5387 14.2747 26.5492C14.238 26.565 14.2012 26.5755 14.1645 26.586C14.154 26.5913 14.1435 26.5912 14.133 26.5965C14.1015 26.607 14.0752 26.6122 14.0437 26.6175C14.0332 26.6175 14.028 26.6227 14.0175 26.6227C13.9807 26.6332 13.9387 26.6385 13.902 26.6437C13.8915 26.6437 13.8862 26.6437 13.8757 26.649C13.8442 26.6542 13.8127 26.6542 13.7812 26.6595H13.7497C13.7077 26.6595 13.671 26.6648 13.629 26.6648C13.587 26.6648 13.5502 26.6647 13.5082 26.6595H13.4768C13.4453 26.6595 13.4137 26.6542 13.3822 26.649C13.3717 26.649 13.3665 26.649 13.356 26.6437C13.3192 26.6385 13.2773 26.6332 13.2405 26.6227C13.23 26.6227 13.2248 26.6175 13.2143 26.6175C13.1828 26.6122 13.1512 26.6017 13.125 26.5965C13.1145 26.5912 13.104 26.5913 13.0935 26.586C13.0567 26.5755 13.02 26.565 12.9832 26.5492C12.9465 26.5387 12.915 26.523 12.8782 26.5072L12.8468 26.4915C12.8205 26.481 12.789 26.4652 12.7627 26.4495C12.7575 26.4442 12.747 26.4442 12.7418 26.439C12.7102 26.4232 12.6735 26.4022 12.642 26.3812C12.6367 26.376 12.6262 26.3708 12.621 26.3655C12.5947 26.3498 12.5685 26.334 12.5475 26.313C12.537 26.3078 12.5317 26.3025 12.5212 26.2973C12.4897 26.2763 12.4582 26.25 12.432 26.229C12.4057 26.208 12.3743 26.1817 12.348 26.1555L12.327 26.1345L12.264 26.0715L12.2482 26.0557C12.222 26.0295 12.1957 25.998 12.1747 25.9718C12.1695 25.9665 12.1643 25.956 12.159 25.9507C12.138 25.9297 12.1222 25.9035 12.1065 25.8773C12.1012 25.8668 12.096 25.8615 12.0907 25.851L12.0278 25.7565V25.7512C12.0068 25.7197 11.991 25.6882 11.9753 25.6567C11.8387 25.3942 11.76 25.095 11.76 24.78C11.76 24.465 11.8387 24.1657 11.9753 23.9032ZM26.67 22.4175V34.02C26.67 34.251 26.859 34.44 27.09 34.44H29.61C29.841 34.44 30.03 34.251 30.03 34.02V22.4175C29.4997 22.5907 28.938 22.68 28.35 22.68C27.762 22.68 27.2002 22.5855 26.67 22.4175ZM30.03 12.0225V7.98C30.03 7.749 29.841 7.56 29.61 7.56H27.09C26.859 7.56 26.67 7.749 26.67 7.98V12.0225C27.2002 11.8492 27.762 11.76 28.35 11.76C28.938 11.76 29.4997 11.8545 30.03 12.0225ZM26.67 22.4175C27.2002 22.5907 27.762 22.68 28.35 22.68C28.938 22.68 29.4997 22.5855 30.03 22.4175C32.2245 21.7087 33.81 19.6507 33.81 17.22C33.81 14.7892 32.2245 12.7312 30.03 12.0225C29.4997 11.8492 28.938 11.76 28.35 11.76C27.762 11.76 27.2002 11.8545 26.67 12.0225C24.4755 12.7312 22.89 14.7892 22.89 17.22C22.89 19.6507 24.4755 21.7087 26.67 22.4175ZM26.6752 16.3432C26.691 16.3117 26.712 16.2802 26.7277 16.2487V16.2435L26.7907 16.149C26.796 16.1385 26.8012 16.1332 26.8065 16.1227C26.8222 16.0965 26.8432 16.0755 26.859 16.0492C26.8642 16.044 26.8695 16.0335 26.8748 16.0282C26.901 15.9967 26.922 15.9705 26.9482 15.9443L26.964 15.9285L27.027 15.8655L27.048 15.8445C27.0742 15.8182 27.1005 15.7972 27.132 15.771C27.1635 15.7447 27.1897 15.7238 27.2212 15.7028C27.2317 15.6975 27.237 15.6922 27.2475 15.687C27.2737 15.6712 27.2948 15.6502 27.321 15.6345C27.3263 15.6292 27.3367 15.624 27.342 15.6187C27.3735 15.5977 27.405 15.582 27.4417 15.561C27.447 15.5557 27.4575 15.5557 27.4627 15.5505C27.489 15.5347 27.5152 15.5242 27.5467 15.5085L27.5782 15.4928C27.615 15.477 27.6465 15.4612 27.6832 15.4507C27.72 15.435 27.7568 15.4245 27.7935 15.414C27.804 15.4087 27.8145 15.4087 27.825 15.4035C27.8565 15.393 27.8827 15.3877 27.9142 15.3825C27.9247 15.3825 27.93 15.3772 27.9405 15.3772C27.9772 15.3667 28.0193 15.3615 28.056 15.3562C28.0665 15.3562 28.0718 15.3562 28.0823 15.351C28.1138 15.3457 28.1453 15.3457 28.1768 15.3405H28.2082C28.2502 15.3405 28.287 15.3352 28.329 15.3352C28.371 15.3352 28.4078 15.3352 28.4498 15.3405H28.4812C28.5127 15.3405 28.5442 15.3457 28.5757 15.351C28.5862 15.351 28.5915 15.351 28.602 15.3562C28.6387 15.3615 28.6807 15.3667 28.7175 15.3772C28.728 15.3772 28.7332 15.3825 28.7437 15.3825C28.7752 15.3877 28.8067 15.3982 28.833 15.4035C28.8435 15.4087 28.854 15.4087 28.8645 15.414C28.9012 15.4245 28.938 15.435 28.9748 15.4507C29.0115 15.4612 29.043 15.477 29.0798 15.4928L29.1112 15.5085C29.1375 15.519 29.169 15.5347 29.1952 15.5505C29.2005 15.5557 29.211 15.5557 29.2162 15.561C29.2477 15.5767 29.2845 15.5977 29.316 15.6187C29.3213 15.624 29.3317 15.6292 29.337 15.6345C29.3632 15.6502 29.3895 15.666 29.4105 15.687C29.421 15.6922 29.4263 15.6975 29.4368 15.7028C29.4683 15.7238 29.4998 15.75 29.526 15.771C29.5522 15.792 29.5837 15.8182 29.61 15.8445L29.631 15.8655L29.694 15.9285L29.7098 15.9443C29.736 15.9705 29.7622 16.002 29.7832 16.0282C29.7885 16.0335 29.7937 16.044 29.799 16.0492C29.82 16.0702 29.8357 16.0965 29.8515 16.1227C29.8567 16.1332 29.862 16.1385 29.8673 16.149L29.9302 16.2435V16.2487C30.1053 16.5425 30.1978 16.878 30.198 17.22C30.198 17.535 30.1192 17.8342 29.9827 18.0968C29.967 18.1283 29.946 18.1597 29.9302 18.1912V18.1965L29.8673 18.291C29.862 18.3015 29.8567 18.3067 29.8515 18.3172C29.8357 18.3435 29.8147 18.3645 29.799 18.3907C29.7937 18.396 29.7885 18.4065 29.7832 18.4118C29.757 18.4433 29.736 18.4695 29.7098 18.4957L29.694 18.5115L29.631 18.5745L29.61 18.5955C29.5837 18.6217 29.5575 18.6427 29.526 18.669C29.4945 18.6952 29.4683 18.7162 29.4368 18.7372C29.4263 18.7425 29.421 18.7477 29.4105 18.753C29.3843 18.7687 29.3632 18.7897 29.337 18.8055C29.3317 18.8108 29.3213 18.816 29.316 18.8212C29.2845 18.8422 29.253 18.858 29.2162 18.879C29.211 18.8843 29.2005 18.8842 29.1952 18.8895C29.169 18.9052 29.1427 18.9158 29.1112 18.9315L29.0798 18.9472C29.043 18.963 29.0115 18.9788 28.9748 18.9893C28.938 19.005 28.9012 19.0155 28.8645 19.026C28.854 19.0312 28.8435 19.0312 28.833 19.0365C28.8015 19.047 28.7752 19.0522 28.7437 19.0575C28.7332 19.0575 28.728 19.0627 28.7175 19.0627C28.6807 19.0732 28.6387 19.0785 28.602 19.0837C28.5915 19.0837 28.5862 19.0837 28.5757 19.089C28.5442 19.0942 28.5127 19.0942 28.4812 19.0995H28.4498C28.4078 19.0995 28.371 19.1047 28.329 19.1047C28.287 19.1047 28.2502 19.1047 28.2082 19.0995H28.1768C28.1453 19.0995 28.1138 19.0942 28.0823 19.089C28.0718 19.089 28.0665 19.089 28.056 19.0837C28.0193 19.0785 27.9772 19.0732 27.9405 19.0627C27.93 19.0627 27.9247 19.0575 27.9142 19.0575C27.8827 19.0522 27.8512 19.0417 27.825 19.0365C27.8145 19.0312 27.804 19.0312 27.7935 19.026C27.7568 19.0155 27.72 19.005 27.6832 18.9893C27.6465 18.9788 27.615 18.963 27.5782 18.9472L27.5467 18.9315C27.5205 18.921 27.489 18.9052 27.4627 18.8895C27.4575 18.8842 27.447 18.8843 27.4417 18.879C27.4102 18.8632 27.3735 18.8422 27.342 18.8212C27.3367 18.816 27.3263 18.8108 27.321 18.8055C27.2948 18.7897 27.2685 18.774 27.2475 18.753C27.237 18.7477 27.2317 18.7425 27.2212 18.7372C27.1897 18.7162 27.1582 18.69 27.132 18.669C27.1057 18.648 27.0742 18.6217 27.048 18.5955L27.027 18.5745L26.964 18.5115L26.9482 18.4957C26.922 18.4695 26.8958 18.438 26.8748 18.4118C26.8695 18.4065 26.8642 18.396 26.859 18.3907C26.838 18.3697 26.8222 18.3435 26.8065 18.3172C26.8012 18.3067 26.796 18.3015 26.7907 18.291L26.7277 18.1965V18.1912C26.7067 18.1597 26.691 18.1283 26.6752 18.0968C26.5387 17.8342 26.46 17.535 26.46 17.22C26.46 16.905 26.5387 16.6057 26.6752 16.3432Z" fill="white"/>
</svg>