<svg xmlns="http://www.w3.org/2000/svg" width="42" height="46" viewBox="0 0 42 46" fill="none">
  <path fill-rule="evenodd" clip-rule="evenodd" d="M6.03296 6.03349C6.90812 5.15832 8.09511 4.66666 9.33279 4.66666H32.6661C33.9038 4.66666 35.0908 5.15832 35.966 6.03349C36.8411 6.90866 37.3328 8.09564 37.3328 9.33332V23.3333C37.3328 24.571 36.8411 25.758 35.966 26.6331C35.0908 27.5083 33.9038 28 32.6661 28H11.6661C11.0473 28 10.4538 28.2458 10.0162 28.6834L4.66612 34.0334V9.33332C4.66612 8.09564 5.15779 6.90866 6.03296 6.03349ZM9.33279 0C6.85743 0 4.48346 0.983329 2.73312 2.73367C0.982785 4.484 -0.00054574 6.85797 -0.00054574 9.33332L-0.000732422 45.2998L12.6326 32.6666H32.6661C35.1415 32.6666 37.5154 31.6833 39.2658 29.9329C41.0161 28.1826 41.9995 25.8086 41.9995 23.3333V9.33332C41.9995 6.85797 41.0161 4.484 39.2658 2.73367C37.5154 0.983329 35.1415 0 32.6661 0H9.33279ZM16.9766 8.99584C17.6017 8.35821 18.4495 8 19.3336 8H22.6669C23.551 8 24.3988 8.35821 25.0239 8.99584C25.6491 9.63346 26.0002 10.4983 26.0002 11.4V24.5H22.6669V18.2H19.3336V24.5H16.0002V11.4C16.0002 10.4983 16.3514 9.63346 16.9766 8.99584ZM22.6669 11.4H19.3336V14.8H22.6669V11.4Z" fill="white"/>
</svg>