<svg xmlns="http://www.w3.org/2000/svg" width="32" height="21" viewBox="0 0 32 21" fill="none">
  <path fill-rule="evenodd" clip-rule="evenodd" d="M32 10.5C32 11.0333 31.787 11.5446 31.4083 11.9201L22.8369 20.4201C22.0525 21.1979 20.7862 21.1926 20.0085 20.4083C19.2307 19.624 19.236 18.3577 20.0203 17.5799L25.1429 12.5L2 12.5C0.895431 12.5 -5.07252e-07 11.6046 -4.5897e-07 10.5C-4.10687e-07 9.39543 0.895429 8.5 2 8.5L25.1429 8.5L20.0203 3.42012C19.236 2.64234 19.2307 1.37603 20.0085 0.591716C20.7862 -0.192594 22.0525 -0.197892 22.8369 0.579881L31.4083 9.07988C31.787 9.45542 32 9.96667 32 10.5Z" fill="black"/>
</svg>