<svg xmlns="http://www.w3.org/2000/svg" width="44" height="44" viewBox="0 0 44 44" fill="none">
  <path d="M14.6667 29.3333V14.6667H29.3333V29.3333H14.6667ZM19.5556 24.4444H24.4444V19.5556H19.5556V24.4444ZM14.6667 44V39.1111H9.77778C8.43333 39.1111 7.282 38.632 6.32378 37.6738C5.36556 36.7156 4.88726 35.565 4.88889 34.2222V29.3333H0V24.4444H4.88889V19.5556H0V14.6667H4.88889V9.77778C4.88889 8.43333 5.368 7.282 6.32622 6.32378C7.28444 5.36556 8.43496 4.88726 9.77778 4.88889H14.6667V0H19.5556V4.88889H24.4444V0H29.3333V4.88889H34.2222C35.5667 4.88889 36.718 5.368 37.6762 6.32622C38.6344 7.28444 39.1127 8.43496 39.1111 9.77778V14.6667H44V19.5556H39.1111V24.4444H44V29.3333H39.1111V34.2222C39.1111 35.5667 38.632 36.718 37.6738 37.6762C36.7156 38.6344 35.565 39.1127 34.2222 39.1111H29.3333V44H24.4444V39.1111H19.5556V44H14.6667ZM34.2222 34.2222V9.77778H9.77778V34.2222H34.2222Z" fill="white"/>
</svg>