<svg xmlns="http://www.w3.org/2000/svg" width="33" height="44" viewBox="0 0 33 44" fill="none">
  <path d="M9.42857 39.6H23.5714V44H9.42857V39.6ZM28.0641 25.7664C30.492 23.1132 33 20.3698 33 15.4C33 6.9102 25.5962 0 16.5 0C7.40379 0 0 6.9102 0 15.4C0 20.427 2.51507 23.1616 4.95236 25.806C5.79621 26.7256 6.67072 27.6782 7.5075 28.7738C7.84693 29.227 8.40321 30.965 8.90057 33H7.07143V37.4H25.9286V33H24.1041C24.6062 30.9606 25.1649 29.2182 25.5019 28.765C26.3316 27.6584 27.2132 26.697 28.0641 25.7664ZM21.6433 26.235C20.6203 27.5924 19.767 30.8 19.272 33H13.7304C13.2377 30.7956 12.3821 27.5814 11.3473 26.224C10.4628 25.0895 9.52204 23.9942 8.52814 22.9416C6.23229 20.4468 4.71429 18.7968 4.71429 15.4C4.71429 9.3346 10.0014 4.4 16.5 4.4C22.9986 4.4 28.2857 9.3346 28.2857 15.4C28.2857 18.7462 26.7701 20.4028 24.4789 22.9086C23.5997 23.8722 22.6026 24.9612 21.6433 26.235Z" fill="white"/>
</svg>